<svg xmlns="http://www.w3.org/2000/svg" width="86" height="60" fill="none" class="logo__bQ7XN"><path fill="#DA0530" fill-rule="evenodd" d="M85.5 0H49.92C38.905 0 36.213 1.802 31.819 6.613L0 41.457c25.413-1.214 33.246 24.326 59.07 17.326L85.5 0" clip-rule="evenodd"/><path fill="#fff" fill-rule="evenodd" d="M71.898 24.182c-.257-.447-.921-.748-2.096-.238-1.259.543-1.774.786-1.814.8-.036.007-1.535.787-1.38-1.241l.47-4.784s.191-1.736-1.175-1.736c0 0-.723-.073-1.887.936 0 0-.57.535-1.007.652a1.6 1.6 0 0 1-.969-.052c-.426-.15-.806-.08-1.106.007 0 0-1.305.346-1.402 2.123l-.524 4.248s-.282 1.653-.134 1.97c0 0 .138.664 1.34.26 0 0 1.02-.305 1.136-2.044 0 0 .293-3.397.776-4.059 0 0 .575-1.083 1.403-1.546 0 0 1.175-.56 1.159.396l-.422 3.897s-.416 1.911.448 2.217c0 0 .097.04-.12.157 0 0-5.614 2.382-12.846 6.408.496-4.093 1.344-9.786 1.344-9.786.124-.925-1.011-.925-1.011-.925-1.108-.033-1.26 1.26-1.36 1.83-.09.569-.925 5.186-.925 5.186-.382 2.093-1.629 1.99-1.629 1.99-1.23.144-.495-3.173-.495-3.173.328-1.192.444-2.194 1.38-2.995.917-.77 1.008-1.783.315-1.809-1.156-.06-2.335 1.18-2.335 1.18-2.055 2.022-2.048 6.92-2.048 6.92-.04 1.552 1.012 2.014 1.012 2.014 1.304.593 3.096-.448 3.096-.448.42-.29.362.116.362.116l-.091 1.24c-5.304 3.064-11.198 6.882-16.286 11.183 0 0-2.332 1.709-1.465 2.845.926 1.194 2.212.107 2.737-.383 0 0 5.213-5.332 14.834-11.307l-.308 4.012c-.133 1.81-.715 7.41-.715 7.41-.271 2.2.083 2.631.206 2.793.199.246 1.059.979 2.023.354 1.19-.76.597-2.592.405-3.454-.197-.87-.173-2.285-.173-2.285.086-1.155.759-8.943.759-8.943.01-.306.05-.739.101-1.263a108.364 108.364 0 0 1 12.655-6.372s2.046-.808 3.79-1.357c0 0 .575-.23 1.312-.446.984-.282 2.256-.723 2.632-1.267.216-.323.299-.77.028-1.23Zm-13.62-6.71s1.087-.901.59-1.564c0 0-.462-.685-1.749.23 0 0-1.157.947-.45 1.609 0 0 .673.626 1.61-.275Zm-3.11 11.51s1.297-.283 1.524-1.755c0 0 .777-5.499.809-5.685.034-.186.37-1.631-.65-1.409 0 0-1.247.239-1.47 1.472l-.973 5.422-.18 1.094s-.254 1.17.94.86Zm-16.675-5.016c1.005-.8.705-1.47.705-1.47-.372-1.07-1.73.07-1.73.07-1.15.815-.753 1.616-.753 1.616.506.868 1.778-.216 1.778-.216Zm1.265 4.111s-.498 3.593-.582 4.386c0 0-.67 3.031.964 2.484 0 0 1.317-.36 1.522-2.21l.262-2.582s.082-1.918 1.614-2.756c0 0 1.636-.733 1.14-1.746 0 0-.31-.808-1.28-.372-.742.323-1.136.372-1.136.372s-.979.115-1.128.139c0 0-1.206.052-1.376 2.285Zm-3.044-.61C35.197 27.806 35 29.536 35 29.536l-.933 6.896c-.15 1.37 1.627.377 1.627.377.733-.432.86-1.335.86-1.335l.282-1.733.863-4.667c.278-1.94-.983-1.607-.983-1.607Zm2.184-13.798s1.583-2.915 2.833-3.872c0 0 1.367-.823 1.402-2.193 0 0 .106-.894-.632-1.471 0 0-1.926-1.56-3.49 1.11 0 0-7.376 13.922-9.924 27.98 0 0-.192.447-.242-.823 0 0-1.084-11.79-1.128-12.218-.04-.425-.014-1.493-1-1.57 0 0-1.162-.21-1.85 1.537L21.595 30.2s-.542 1.002.332 1.385c0 0 .973.554 1.608-.81l1.51-3.23c.297-.664.524-.57.524-.57.174.036.246.7.246.7s1.33 15.815 1.344 15.937c.015.123.13 1.4 1.2 1.4.774-.015 1.016-.874 1.17-1.581.157-.72 1.591-8.253 3.994-16.378 1.572-5.31 3.596-10.628 5.374-13.384Z" clip-rule="evenodd"/></svg>